<svg width="34" height="107" viewBox="0 0 34 107" fill="none" xmlns="http://www.w3.org/2000/svg">
  <path d="M23.143 88.0615C23.0522 87.7085 22.8328 87.4799 22.5387 87.4116C22.2088 87.339 21.8364 87.5041 21.5679 87.835C20.7258 88.8655 20.2644 89.9769 20.0776 91.4271L20.0333 91.7705C19.6532 94.6161 19.2626 97.5597 18.0049 100.223C17.888 100.462 17.8192 100.719 17.7425 101.006C17.5721 100.812 17.4031 100.613 17.2327 100.419C16.4588 99.5322 15.6618 98.6132 14.9759 97.6551C14.2972 96.7096 13.7611 95.5478 13.3291 94.6102C12.6879 93.2081 12.0609 91.7728 11.4529 90.385C11.0778 89.5315 10.704 88.673 10.3239 87.8182L9.82563 86.6931C9.21729 85.3264 8.61257 83.966 8.01772 82.6082C7.91852 82.3854 7.88062 82.1314 7.83681 81.8598C7.82473 81.7665 7.80772 81.6718 7.78938 81.582C7.76646 81.4699 7.76232 81.3468 7.75687 81.2287C7.74437 80.9391 7.73319 80.6445 7.548 80.4463C6.7926 79.4908 6.69083 78.3873 6.59145 77.2155C6.54237 76.6669 6.49232 76.1021 6.36881 75.5547C6.27412 75.1369 6.16956 74.7166 6.06367 74.3011C5.85684 73.4716 5.6418 72.6134 5.50614 71.7552C5.28939 70.4088 5.17935 69.0592 5.08897 67.7943L5.08509 67.7297C4.9117 65.6474 4.73215 63.4892 4.65957 61.3862C4.61451 60.2289 4.64521 59.0655 4.67785 57.9345C4.69501 57.3559 4.70723 56.776 4.71452 56.1948C4.71293 56.1414 4.72749 56.087 4.73711 56.0312C4.75767 55.9148 4.78087 55.7885 4.7471 55.6575C4.47425 54.402 4.77042 53.2356 5.0815 51.9937C5.22249 51.4272 5.37238 50.8471 5.45542 50.2597C5.51552 49.8571 5.57068 49.453 5.63209 49.0454C5.77329 48.023 5.92243 46.9709 6.15386 45.9674C6.36181 45.0318 6.64191 44.0838 6.90781 43.169C7.09863 42.5151 7.30101 41.8378 7.47243 41.1575C7.70208 40.2596 7.91692 39.3576 8.13175 38.4557C8.40781 37.3051 8.69314 36.1199 8.99918 34.9562C9.15269 34.3824 9.38919 33.815 9.70736 33.2589C10.2939 32.2341 10.8889 31.2168 11.4876 30.2058C12.4886 28.5023 13.5216 26.7384 14.4851 24.9771C14.8765 24.2657 15.1969 23.5034 15.5071 22.7596C15.8146 22.0257 16.1323 21.2733 16.5136 20.5804C16.9968 19.724 17.6835 18.9381 18.346 18.1828L18.5598 17.938C19.4579 16.896 20.3932 15.8535 21.2995 14.8402C22.2044 13.8319 23.1348 12.788 24.0392 11.7424C24.5843 11.1094 25.1003 10.4473 25.601 9.80236C26.0523 9.22366 26.5137 8.62649 26.9946 8.05574C27.3894 7.58912 27.8859 7.19751 28.3735 6.81941C28.8918 6.38592 29.415 5.95377 29.9369 5.52655C30.7644 4.84736 31.6245 4.14512 32.4451 3.43227C32.8151 3.11802 33.1657 2.69786 33.435 2.24528C33.597 1.97597 33.6852 1.52779 33.5386 1.24459C33.3677 0.933649 32.8395 0.85022 32.6699 0.831214C31.4023 0.761412 30.5405 1.48971 29.7126 2.19002C29.4798 2.38733 29.2484 2.57969 29.0111 2.75457C28.4094 3.20279 27.8525 3.72134 27.3157 4.22407C26.8066 4.70242 26.2787 5.19164 25.7223 5.60958C24.2741 6.68947 23.2306 8.11654 22.2251 9.50078L21.9407 9.891C21.5508 10.4384 21.0874 10.9238 20.5951 11.4384C20.2491 11.8015 19.8844 12.1755 19.5602 12.5762C18.2122 14.1919 16.8845 15.8502 15.5822 17.4729C15.4252 17.6641 15.2584 17.8526 15.0852 18.0447C14.6769 18.5024 14.2521 18.9821 13.9541 19.5224C13.4659 20.3775 13.04 21.297 12.6318 22.1895C12.467 22.5482 12.3036 22.9019 12.1352 23.2543C12.0299 23.4699 11.9416 23.7007 11.8498 23.9253C11.6813 24.3572 11.5208 24.7594 11.2648 25.0831C10.5114 25.9995 10.0817 27.0717 9.66609 28.1106C9.47184 28.5993 9.26736 29.1064 9.03492 29.5794C8.72689 30.1966 8.40043 30.8035 8.07397 31.4104C7.48508 32.5035 6.87935 33.6398 6.39479 34.7981C6.00207 35.7318 5.74728 36.7237 5.50042 37.686C5.3717 38.1869 5.23769 38.7076 5.08789 39.2081C4.98309 39.5405 4.8684 39.8702 4.74878 40.1986C4.60437 40.5999 4.45599 41.016 4.33857 41.4351C4.08775 42.4122 3.84803 43.4665 3.59189 44.7603C3.41825 45.6468 3.26171 46.5484 3.11179 47.4254C2.93699 48.4547 2.75424 49.5136 2.5409 50.5485C1.61382 54.3501 1.69383 58.2258 1.76971 61.9785L1.77472 62.1972C1.78936 63.1713 1.91073 64.1422 2.02521 65.0795C2.07871 65.5127 2.13353 65.9409 2.17715 66.3714C2.21196 66.736 2.25302 67.0969 2.29277 67.4628C2.38821 68.3525 2.49052 69.276 2.53357 70.1835C2.76759 73.899 3.49742 77.7795 4.69654 81.7063C5.01378 82.7563 5.42941 84.1508 5.77713 85.6014C6.13269 87.1017 6.91999 88.3733 7.68065 89.6059C7.79899 89.7967 7.92095 89.9938 8.03929 90.1846C8.39167 90.7669 8.66722 91.4187 8.93326 92.0468C9.15035 92.561 9.37467 93.0877 9.64283 93.5891C10.2745 94.75 10.9371 95.9139 11.5793 97.0352C12.095 97.937 12.6107 98.8388 13.1138 99.7479C13.291 100.055 13.4606 100.371 13.6239 100.691C13.8726 101.166 14.1286 101.653 14.4235 102.114C14.4768 102.192 14.5439 102.258 14.5985 102.331C14.2864 102.231 13.9805 102.128 13.6684 102.028C12.6409 101.694 11.5788 101.351 10.5555 100.981C8.67573 100.29 6.77818 99.548 4.93725 98.8313L4.86088 98.8002C4.59225 98.6963 4.32035 98.565 4.0534 98.435C3.66465 98.2459 3.26108 98.0528 2.84393 97.9302C2.31945 97.7736 1.60022 97.6919 1.17537 97.9543C0.537592 98.3398 0.870829 98.9541 1.115 99.4066L1.18238 99.5307C1.59638 100.358 2.26929 100.612 2.99026 100.885C4.03154 101.287 5.0708 101.735 6.07813 102.165C7.20857 102.648 8.37226 103.146 9.54558 103.588C11.3967 104.286 13.2957 104.944 15.1305 105.585C15.9196 105.861 16.7038 106.135 17.493 106.41C17.5509 106.431 17.6102 106.447 17.6694 106.463C18.3905 106.656 18.9665 106.403 19.2614 105.756C19.3578 105.553 19.4556 105.346 19.552 105.144C19.9568 104.304 20.3807 103.432 20.6058 102.511C21.5497 98.6665 22.443 94.7339 23.3367 90.4833C23.4617 89.8382 23.3981 89.0471 23.143 88.0615Z" fill="black"/>
</svg>
